<?xml version="1.0" encoding="UTF-8" standalone="no"?>
<!-- Created with Inkscape (http://www.inkscape.org/) -->

<svg
   xmlns:dc="http://purl.org/dc/elements/1.1/"
   xmlns:cc="http://creativecommons.org/ns#"
   xmlns:rdf="http://www.w3.org/1999/02/22-rdf-syntax-ns#"
   xmlns:svg="http://www.w3.org/2000/svg"
   xmlns="http://www.w3.org/2000/svg"
   xmlns:sodipodi="http://sodipodi.sourceforge.net/DTD/sodipodi-0.dtd"
   xmlns:inkscape="http://www.inkscape.org/namespaces/inkscape"
   width="210mm"
   height="297mm"
   viewBox="0 0 210 297"
   version="1.1"
   id="svg6551"
   sodipodi:docname="mazowsze.svg"
   inkscape:version="0.92.4 (5da689c313, 2019-01-14)">
  <defs
     id="defs6545" />
  <sodipodi:namedview
     id="base"
     pagecolor="#ffffff"
     bordercolor="#666666"
     borderopacity="1.0"
     inkscape:pageopacity="0.0"
     inkscape:pageshadow="2"
     inkscape:zoom="2"
     inkscape:cx="478.99756"
     inkscape:cy="511.18491"
     inkscape:document-units="mm"
     inkscape:current-layer="layer1"
     showgrid="false"
     inkscape:window-width="1920"
     inkscape:window-height="1001"
     inkscape:window-x="-9"
     inkscape:window-y="-9"
     inkscape:window-maximized="1" />
  <metadata
     id="metadata6548">
    <rdf:RDF>
      <cc:Work
         rdf:about="">
        <dc:format>image/svg+xml</dc:format>
        <dc:type
           rdf:resource="http://purl.org/dc/dcmitype/StillImage" />
      </cc:Work>
    </rdf:RDF>
  </metadata>
  <g
     inkscape:label="Layer 1"
     inkscape:groupmode="layer"
     id="layer1">
    <path
       d="m 107.2095,208.2368 c -0.46268,-0.52628 -2.00028,-1.28466 -3.41686,-1.68534 -1.51466,-0.42838 -2.7115,-1.219 -2.9055,-1.91934 -0.4378,-1.58038 -2.367896,-2.21828 -3.928376,-1.29832 -1.95488,1.15248 -3.91316,0.88052 -5.54394,-0.7699 -0.82102,-0.83092 -2.17836,-1.71394 -3.01632,-1.96228 -0.83796,-0.24834 -1.7105,-1.15468 -1.93902,-2.01412 -0.24334,-0.9152 -1.0678,-1.71718 -1.98996,-1.93566 -1.8147,-0.42996 -1.55946,-1.91754 0.43138,-2.51402 1.37878,-0.4131 1.81478,-3.12066 0.61522,-3.8205 -0.37282,-0.21752 -0.67784,-1.05372 -0.67784,-1.85822 0,-0.8045 -0.60286,-1.97778 -1.3397,-2.60726 -1.73036,-1.47826 -1.17542,-2.25322 1.61356,-2.25322 1.297,0 2.69596,-0.48878 3.34918,-1.17016 1.18744,-1.2386 1.53504,-4.912 0.52082,-5.5037 -0.33054,-0.1928 -0.8019,-1.36162 -1.04746,-2.59726 l -0.44648,-2.24666 h -4.57858 c -2.65734,0 -4.9199,-0.3222 -5.39198,-0.76784 -0.44738,-0.42232 -0.8134,-2.13428 -0.8134,-3.80434 0,-2.67522 -0.21992,-3.136 -1.8483,-3.87274 -1.07206,-0.48506 -2.10168,-1.64178 -2.45166,-2.7544 -1.1465,-3.64462 -1.41278,-3.84536 -4.93034,-3.7168 -1.82034,0.0666 -4.60574,0.3127 -6.1898,0.54704 -2.50542,0.37068 -3.32102,0.159 -6.26998,-1.62736 -3.64346,-2.20708 -4.18256,-3.39422 -2.03424,-4.47958 1.43662,-0.7258 1.81918,-3.14578 0.66894,-4.23158 -0.91894,-0.8675 0.51432,-4.77364 2.15856,-5.88276 1.32566,-0.89422 1.70894,-4.25342 0.56168,-4.92276 -0.3728,-0.2175 -0.67782,-1.09832 -0.67782,-1.95738 0,-1.11658 0.3731,-1.56194 1.30852,-1.56194 0.83254,0 1.38732,-0.51416 1.52514,-1.41348 0.1366,-0.89078 0.84326,-1.55438 1.9112,-1.79446 1.52426,-0.34268 1.69458,-0.69852 1.69458,-3.54038 0,-3.13904 0.018,-3.16546 2.86328,-4.09896 2.32718,-0.76364 3.28798,-0.79456 5.1319,-0.1652 1.24774,0.42592 3.6196,0.76698 5.27078,0.7579 2.83294,-0.016 3.07216,-0.1598 4.24418,-2.55952 1.18922,-2.43486 1.37694,-2.54298 4.41468,-2.54298 2.63998,0 3.28496,-0.24172 3.84172,-1.43972 0.45184,-0.97218 1.36148,-1.50322 2.8011,-1.63524 1.1726,-0.1076 2.66876,-0.7554 3.3248,-1.43972 0.82268,-0.85816 2.0809,-1.24422 4.055,-1.24422 1.632716,0 3.202096,-0.3866 3.653456,-0.89998 0.43518,-0.495 2.2651,-0.9989 4.06648,-1.11978 l 3.27522,-0.2198 0.34616,5.74462 c 0.27578,4.5765 0.58812,5.87764 1.53604,6.39876 2.39462,1.3165 5.06328,4.16342 5.06328,5.40154 0,3.23526 4.08028,7.09032 7.50456,7.09032 0.92496,0 2.03368,0.56626 2.50568,1.27974 0.58402,0.8828 1.58074,1.27976 3.21332,1.27976 2.0177,0 2.3667,0.21702 2.3667,1.47172 0,0.80944 0.35688,1.8086 0.79304,2.22034 0.6055,0.5716 0.58742,1.3368 -0.0764,3.23578 -1.20452,3.44534 -0.56838,4.71664 3.69822,7.39088 3.10482,1.94602 4.28508,2.31806 7.35394,2.31806 2.42242,0 3.94016,0.32376 4.49936,0.95982 0.46412,0.5279 1.49278,0.99388 2.28596,1.03552 1.07838,0.0566 0.95406,0.1776 -0.49286,0.4799 -1.38396,0.2891 -2.3844,1.19848 -3.51302,3.19324 -1.7366,3.0693 -4.02952,4.98362 -4.71504,3.93652 -0.23288,-0.3557 -1.50156,-0.64674 -2.8193,-0.64674 -1.82582,0 -2.48024,0.3045 -2.7504,1.27976 -0.25112,0.90648 -0.9246,1.27974 -2.30898,1.27974 -1.07496,0 -1.95446,0.28796 -1.95446,0.63988 0,0.3548 -1.79422,0.63988 -4.02702,0.63988 -2.21486,0 -4.19118,0.25076 -4.39184,0.55724 -0.20064,0.30648 -1.28624,0.73118 -2.41242,0.94382 -2.17542,0.4107 -2.75628,2.05318 -1.23422,3.48998 0.63264,0.59722 0.63264,0.9385 0,1.5357 -0.44738,0.42232 -0.8134,2.22988 -0.8134,4.01682 0,3.834 -1.39656,6.09322 -3.76654,6.09322 -2.46724,0 -2.35216,3.58722 0.1762,5.49032 1.45074,1.092 1.85188,1.96308 1.92642,4.18322 0.0518,1.54224 0.1774,3.09198 0.2792,3.44392 0.2922,1.01034 -0.016,8.83848 -0.3962,10.07806 -0.2589,0.84304 -1.06588,1.11978 -3.26546,1.11978 -1.77004,0 -3.2542,0.3783 -3.76544,0.9598 -1.06192,1.2079 -1.64884,1.20856 -2.70874,0.004 z"
       style="fill:#687864;fill-opacity:1;stroke-width:0.26458332"
       id="path1326"
       inkscape:connector-curvature="0" />
    <ellipse
       style="fill:#800000;stroke-width:0.26458332;fill-opacity:0.94117647"
       id="path6568"
       cx="98.292709"
       cy="157.56459"
       rx="1.190625"
       ry="1.0583333" />
    <text
       xml:space="preserve"
       style="font-style:normal;font-weight:normal;font-size:2.82222222px;line-height:1.25;font-family:sans-serif;letter-spacing:0px;word-spacing:0px;fill:#000000;fill-opacity:1;stroke:none;stroke-width:0.26458332;-inkscape-font-specification:'sans-serif, Normal';font-stretch:normal;font-variant:normal;text-anchor:start;text-align:start;writing-mode:lr;font-variant-ligatures:normal;font-variant-caps:normal;font-variant-numeric:normal;font-feature-settings:normal;"
       x="99.615623"
       y="158.49063"
       id="text7377"><tspan
         sodipodi:role="line"
         id="tspan7375"
         x="99.615623"
         y="158.49063"
         style="font-size:2.82222222px;stroke-width:0.26458332;-inkscape-font-specification:'sans-serif, Normal';font-family:sans-serif;font-weight:normal;font-style:normal;font-stretch:normal;font-variant:normal;text-anchor:start;text-align:start;writing-mode:lr;font-variant-ligatures:normal;font-variant-caps:normal;font-variant-numeric:normal;font-feature-settings:normal;">Warszawa</tspan></text>
    <path
       style="fill:none;stroke:#000000;stroke-width:0.26458332px;stroke-linecap:butt;stroke-linejoin:miter;stroke-opacity:1"
       d="m 116.54896,190.90208 c -0.67086,-0.52292 -1.1129,-2.13035 -2.51591,-3.71741 -0.92323,-1.04433 -2.26255,-2.07983 -4.35697,-2.7917 -0.84182,-0.28612 -2.81526,1.14688 -3.64322,0.47334 -1.77646,-1.44516 -2.09341,-5.43714 -1.48282,-6.5941 0.88914,-1.68477 -2.50993,-3.08722 -2.20734,-4.70108 0.38168,-2.03569 3.08983,-5.91011 1.47327,-6.75514 -6.648077,-3.47514 -3.45469,-6.38476 -4.838021,-8.26846 -1.190429,-1.62102 -4.441726,-3.05581 -6.15403,-5.51516 -2.849213,-4.09227 -4.29592,-6.19725 -6.750642,-6.14749 -25.481706,0.5165 -21.771186,-2.71701 -31.701403,-1.75571"
       id="path7379"
       inkscape:connector-curvature="0"
       sodipodi:nodetypes="csssssssssc" />
  </g>
</svg>
